<svg preserveAspectRatio="none" overflow="visible" style="display: block;" width="28" height="28" viewBox="0 0 28 28" fill="none" xmlns="http://www.w3.org/2000/svg">
<g id="peanut">
<path id="Vector (Stroke)" d="M20.6101 10.4648C20.3064 11.7416 19.6103 12.808 18.6731 13.5876C18.3738 13.8424 18.0623 14.3275 17.9681 14.7233C17.8815 15.0876 17.9526 15.421 18.1265 15.725C18.9074 17.0724 19.1905 18.7158 18.8014 20.3515C17.9906 23.76 14.5758 25.8624 11.1674 25.0516C7.75891 24.2408 5.65652 20.8261 6.4673 17.4176C6.85633 15.7821 7.84934 14.4419 9.153 13.5905C9.44517 13.3974 9.65879 13.1316 9.74544 12.7674C9.83959 12.3716 9.77989 11.7982 9.62734 11.4359C9.14152 10.3178 9.00019 9.05214 9.3039 7.77537C10.0423 4.67118 12.9182 2.66212 16.3017 3.46697C19.1212 4.13763 21.4189 7.06463 20.6101 10.4648Z" fill="#9CD97D"/>
<circle id="Ellipse 68" cx="11.76" cy="19.9733" r="0.56" fill="white"/>
<circle id="Ellipse 69" cx="14.3733" cy="18.48" r="0.56" fill="white"/>
<circle id="Ellipse 70" cx="14.7467" cy="21.0933" r="0.56" fill="white"/>
</g>
</svg>
