<svg preserveAspectRatio="none" overflow="visible" style="display: block;" width="28" height="28" viewBox="0 0 28 28" fill="none" xmlns="http://www.w3.org/2000/svg">
<g id="bean">
<path id="Vector" d="M18.4631 6.02677C17.1538 5.49365 15.9796 5.48472 14.9663 5.86204C13.9706 6.23206 13.213 6.94288 12.6557 7.70483C12.2657 8.23876 12.0236 8.83841 11.8233 9.33339L11.7349 9.55248C11.5016 10.1164 11.2837 10.5635 10.9113 10.9384C10.5446 11.3084 10.1047 11.5283 9.54412 11.7645L9.32617 11.8562C8.83478 12.059 8.24045 12.3049 7.70966 12.696C6.93678 13.2664 6.22021 14.0333 5.85267 15.0411C5.4787 16.0684 5.50122 17.2514 6.04569 18.5676C6.99308 20.8534 9.25299 22.1753 11.7437 22.3733C14.2473 22.5729 17.0597 21.6559 19.2971 19.3993C21.6664 17.008 22.5985 14.1598 22.3653 11.6436C22.132 9.13621 20.7286 6.94856 18.4631 6.02677ZM9.79182 13.2161C9.7374 13.1613 9.6856 13.1039 9.63661 13.0441L9.7685 12.9889L10.0106 12.8883C10.592 12.6425 11.221 12.3479 11.7646 11.7994C12.3139 11.2451 12.6058 10.6082 12.8479 10.0207L12.9468 9.77806L13.0184 9.60441C13.0828 9.65689 13.1444 9.71315 13.2034 9.77319C13.4305 9.99853 13.6111 10.267 13.7348 10.5631C13.8585 10.8592 13.9229 11.1771 13.9242 11.4985C13.9255 11.8198 13.8638 12.1383 13.7425 12.4354C13.6213 12.7326 13.4429 13.0026 13.2177 13.2298C12.9926 13.4571 12.725 13.6371 12.4305 13.7595C12.136 13.8819 11.8205 13.9443 11.502 13.943C11.1835 13.9417 10.8684 13.8768 10.5749 13.7521C10.2814 13.6273 10.0152 13.4452 9.79182 13.2161Z" fill="#9CD97D"/>
</g>
</svg>
