<svg preserveAspectRatio="none" overflow="visible" style="display: block;" width="75" height="75" viewBox="0 0 75 75" fill="none" xmlns="http://www.w3.org/2000/svg">
<g id="Celery &#38; mustard">
<path id="Vector 69" d="M20.9451 44.5258C18.4066 46.186 11.2291 53.4198 7.95763 56.8291C4.17947 60.6688 6.72776 64.8524 8.47418 66.4642C13.0198 72.8679 18.6821 69.1324 20.9451 66.4642L36.1463 50.1587C39.3931 47.3126 44.3372 48.6269 46.4034 49.6399C54.6091 53.0196 55.9226 48.9234 55.5536 46.4529C62.8738 49.4175 64.5563 44.9705 63.597 42.7471C72.0093 40.5236 69.0576 33.186 65.0728 32.2226C69.279 23.2545 59.686 20.8828 55.5536 22.6616C51.4212 16.3617 48.1006 23.6251 48.1744 23.2545C48.2334 22.958 47.0183 22.1922 46.4034 21.8463C49.8273 18.348 47.0429 15.6452 45.2227 14.7311C46.4624 7.616 41.902 5.29369 39.4669 5.02193C36.2791 4.66617 34.1047 8.72772 33.4159 10.803C30.5823 10.21 29.2836 12.4829 28.9884 13.6935C28.28 15.1758 29.2836 18.1158 29.8739 19.4004C27.8668 19.4004 27.0206 19.7463 26.8484 19.9193C24.9003 20.5715 25.1512 23.6992 25.5202 25.1815C25.9924 25.8337 26.996 30.7896 27.4388 33.186C28.0291 35.202 27.0452 37.7318 26.4795 38.7448C26.1253 39.6934 22.6423 42.9941 20.9451 44.5258Z" fill="#9CD97D"/>
<path id="Vector 70 (Stroke)" d="M35.4994 30.5C35.4994 30.2239 35.7232 30 35.9994 30C36.2755 30 36.4994 30.2239 36.4994 30.5C36.4994 31.0178 36.1113 31.3799 35.7757 31.5918C35.5473 31.7361 35.2786 31.853 34.9964 31.9414C35.0042 32.0074 34.9991 32.0759 34.9788 32.1436C33.6292 36.6401 38.0388 42.7086 45.4662 41.1094C45.4577 40.9036 45.4595 40.6284 45.512 40.3916C45.5768 40.1001 45.7347 39.7947 45.8519 39.5908C45.9141 39.4826 45.9727 39.3895 46.016 39.3232C46.0376 39.29 46.0558 39.2631 46.0687 39.2441C46.0751 39.2347 46.0805 39.2271 46.0843 39.2217C46.0861 39.219 46.0871 39.2165 46.0882 39.2148L46.0902 39.2129V39.2119H46.0912C46.2504 38.9863 46.5618 38.9326 46.7874 39.0918C46.9849 39.2312 47.0508 39.4871 46.9574 39.7002L46.9076 39.7881L46.9056 39.792C46.9034 39.7951 46.8995 39.7999 46.8949 39.8066C46.8853 39.8207 46.8706 39.842 46.8529 39.8691C46.8173 39.9237 46.7689 40.0006 46.7181 40.0889C46.6091 40.2784 46.5175 40.4738 46.4876 40.6084C46.4609 40.729 46.4569 40.9217 46.4671 41.1162C46.4699 41.1693 46.4751 41.2192 46.4788 41.2627C46.6288 41.4035 46.8228 41.577 47.0208 41.7227C47.1502 41.8178 47.2695 41.8945 47.3695 41.9453C47.4819 42.0024 47.5192 42 47.4994 42C47.7755 42 47.9994 42.2239 47.9994 42.5C47.9994 42.7761 47.7755 43 47.4994 43C47.2795 43 47.0705 42.9142 46.9163 42.8359C46.7499 42.7513 46.5817 42.6404 46.4281 42.5273C46.2185 42.3731 46.0159 42.1995 45.8509 42.0479C37.8162 43.8858 32.5897 37.4413 33.9456 32.1279C33.6537 32.1411 33.3613 32.1213 33.0931 32.0537C32.6585 31.9441 32.1999 31.6837 32.0247 31.1582C31.9374 30.8962 32.0792 30.6127 32.3412 30.5254C32.6031 30.4381 32.8866 30.5798 32.974 30.8418C32.9988 30.9163 33.0781 31.0186 33.3372 31.084C33.5944 31.1488 33.9434 31.1497 34.3099 31.083C34.6749 31.0166 35.0109 30.8917 35.2415 30.7461C35.4997 30.583 35.4994 30.4822 35.4994 30.5Z" fill="black"/>
<path id="Ellipse 83 (Stroke)" d="M43.0005 28.9505C44.0417 27.8794 44.0149 26.2117 42.9995 25.2247C41.9842 24.2379 40.3164 24.2582 39.2752 25.3292C38.2343 26.4003 38.2618 28.0674 39.2769 29.0543L38.5798 29.7714C37.1997 28.4296 37.1476 26.2285 38.4303 24.7708L38.5582 24.6322C39.9711 23.1787 42.2717 23.1228 43.6966 24.5077C45.1214 25.8927 45.1305 28.1939 43.7175 29.6475L43.5834 29.7799C42.1625 31.1034 39.9601 31.1131 38.5798 29.7714L39.2769 29.0543C40.2921 30.0412 41.9593 30.0214 43.0005 28.9505Z" fill="black"/>
<path id="Vector 73 (Stroke)" d="M39.6465 26.0488C40.3015 25.3939 41.2178 25.3289 41.8203 25.8311C42.4502 26.3561 42.5107 27.2876 41.916 28.1797C41.7628 28.4094 41.4524 28.4715 41.2227 28.3184C40.993 28.1652 40.9308 27.8547 41.084 27.625C41.489 27.0175 41.2996 26.6996 41.1797 26.5996C41.0323 26.4767 40.6985 26.411 40.3535 26.7559C40.1583 26.9511 39.8417 26.9511 39.6465 26.7559C39.4513 26.5606 39.4512 26.2441 39.6465 26.0488Z" fill="black"/>
<path id="Ellipse 84 (Stroke)" d="M49.8701 34.8238C50.9284 33.7351 50.8964 32.0967 49.9343 31.1613C48.9722 30.226 47.3335 30.2405 46.2751 31.3293C45.217 32.4181 45.2494 34.0558 46.2115 34.9911L45.5145 35.7081L45.3884 35.5787C44.1691 34.2607 44.1872 32.18 45.4302 30.7708L45.5581 30.6323C46.9711 29.1787 49.2427 29.0944 50.6314 30.4443L50.7575 30.5737C52.0173 31.9357 51.9559 34.1127 50.5871 35.5208L50.4522 35.6526C49.033 36.9778 46.8598 37.0158 45.5145 35.7081L46.2115 34.9911C47.1736 35.9262 48.8117 35.9123 49.8701 34.8238Z" fill="black"/>
<path id="Vector 72 (Stroke)" d="M46.6465 32.0488C47.3015 31.3939 48.2178 31.3289 48.8203 31.8311C49.4502 32.3561 49.5107 33.2876 48.916 34.1797C48.7628 34.4094 48.4524 34.4715 48.2227 34.3184C47.993 34.1652 47.9308 33.8547 48.084 33.625C48.489 33.0175 48.2996 32.6996 48.1797 32.5996C48.0323 32.4767 47.6985 32.411 47.3535 32.7559C47.1583 32.9511 46.8417 32.9511 46.6465 32.7559C46.4513 32.5606 46.4512 32.2441 46.6465 32.0488Z" fill="black"/>
</g>
</svg>
