<svg preserveAspectRatio="none" overflow="visible" style="display: block;" width="32" height="24" viewBox="0 0 32 24" fill="none" xmlns="http://www.w3.org/2000/svg">
<g id="Logo" clip-path="url(#clip0_0_165)">
<path id="Union" d="M22.8693 3.2821C23.2184 2.8337 23.8649 2.75256 24.3136 3.10143C24.7624 3.45057 24.8433 4.09794 24.4943 4.54675C23.3465 6.02215 22.7229 7.34535 22.6046 8.42663C22.5175 9.22313 22.6973 9.92356 23.2404 10.5399C24.4336 9.15164 25.6747 7.55609 26.9562 5.72546C27.2824 5.26004 27.9241 5.14753 28.3898 5.4735C28.8554 5.79964 28.9687 6.44134 28.6427 6.9071C27.3941 8.69076 26.1696 10.2746 24.9757 11.6776C25.6387 11.8924 26.3007 11.8812 26.9532 11.6815C28.0636 11.3415 29.267 10.4164 30.3878 8.8153C30.7139 8.34953 31.3556 8.23646 31.8214 8.56237C32.2872 8.88846 32.4004 9.53013 32.0743 9.99596C30.7929 11.8265 29.2505 13.1314 27.5558 13.6503C26.1964 14.0664 24.8173 13.9497 23.5323 13.3007C18.3714 18.8409 13.7757 20.9452 9.89367 20.8827C4.73623 20.7995 1.35566 16.9187 0.0635932 13.412C-0.132673 12.8785 0.140563 12.2863 0.673945 12.0897C1.20738 11.8932 1.79951 12.1667 1.99621 12.7001C3.10669 15.7139 5.90428 18.7592 9.92687 18.8241C12.9743 18.8731 17.0118 17.2249 21.8614 12.078C20.812 10.9924 20.3981 9.65253 20.5568 8.20202C20.7345 6.57857 21.6143 4.89536 22.8693 3.2821ZM7.89367 4.25768C8.65166 4.25784 9.26657 5.1793 9.26672 6.31628C9.26672 7.45344 8.65175 8.37569 7.89367 8.37585C7.1355 8.37585 6.52062 7.45353 6.52062 6.31628C6.52077 5.17921 7.13559 4.25768 7.89367 4.25768ZM13.3849 4.25768C14.1428 4.25801 14.7568 5.17941 14.757 6.31628C14.757 7.45333 14.1429 8.37552 13.3849 8.37585C12.6267 8.37585 12.0118 7.45353 12.0118 6.31628C12.012 5.17921 12.6268 4.25768 13.3849 4.25768Z" fill="#366823"/>
</g>
<defs>
<clipPath id="clip0_0_165">
<rect width="32" height="24" fill="white"/>
</clipPath>
</defs>
</svg>
