<svg preserveAspectRatio="none" overflow="visible" style="display: block;" width="28" height="28" viewBox="0 0 28 28" fill="none" xmlns="http://www.w3.org/2000/svg">
<g id="Mascot">
<path id="Vector" fill-rule="evenodd" clip-rule="evenodd" d="M17.0886 8.00205C17.1533 7.90655 17.1978 7.79912 17.2195 7.68589C17.2412 7.57267 17.2397 7.45587 17.2151 7.34216C17.1904 7.22845 17.1431 7.12006 17.0759 7.02318C17.0086 6.92629 16.9227 6.84282 16.8231 6.77751C16.7235 6.7122 16.6121 6.66634 16.4952 6.64255C16.3784 6.61876 16.2584 6.61751 16.1422 6.63886C16.026 6.66021 15.9157 6.70374 15.8178 6.76698C15.7198 6.83022 15.636 6.91192 15.5713 7.00742C13.9427 9.41365 12.7024 12.0541 11.8924 14.8394C11.1338 17.4365 10.8658 19.7311 10.7878 21.3803C10.7558 22.0304 10.7518 22.6822 10.7758 23.334C10.7863 23.5821 10.8038 23.83 10.8282 24.0775C10.8748 24.5628 11.3263 24.9216 11.8236 24.88C12.3199 24.8382 12.6728 24.4116 12.6272 23.9263C12.6073 23.7206 12.5928 23.5139 12.5838 23.3064C12.567 22.8879 12.5589 22.2729 12.5953 21.5023C12.7003 19.4167 13.0487 17.3551 13.6335 15.357C14.3941 12.7408 15.5589 10.2607 17.0884 8.00066" fill="#9CD97D"/>
<path id="Vector_2" fill-rule="evenodd" clip-rule="evenodd" d="M18.5203 3.29623C18.8877 3.25878 19.2609 3.30241 19.6124 3.42391C19.9639 3.54541 20.2848 3.74167 20.5512 3.99816C20.8176 4.25466 21.0227 4.56485 21.1515 4.90579C21.2802 5.24673 21.3293 5.6097 21.295 5.96788L21.2537 6.39759C20.9628 9.44071 18.4295 11.9354 15.3081 12.2547L14.868 12.2996C14.5007 12.3369 14.1275 12.2932 13.776 12.1716C13.4246 12.05 13.1038 11.8537 12.8375 11.5972C12.5712 11.3407 12.3661 11.0305 12.2374 10.6896C12.1087 10.3487 12.0597 9.98573 12.094 9.62761L12.1346 9.1982C12.4255 6.15509 14.9588 3.66041 18.0802 3.34113L18.5203 3.29623Z" fill="#9CD97D"/>
<path id="Vector_3" fill-rule="evenodd" clip-rule="evenodd" d="M14.446 14.7365C15.3266 12.9216 17.6717 12.334 19.4292 13.4398L19.5575 13.5211C19.8622 13.7165 20.0569 14.1063 19.8661 14.499C18.9855 16.3139 16.6408 16.9013 14.8829 15.7957L14.7546 15.7144C14.4495 15.5191 14.2552 15.1292 14.446 14.7365Z" fill="#9CD97D"/>
<path id="Vector_4" fill-rule="evenodd" clip-rule="evenodd" d="M13.5213 18.2969C14.765 16.6867 17.1859 16.5584 18.6758 17.9771L18.7845 18.0812C19.042 18.3308 19.151 18.7499 18.8816 19.0982C17.6379 20.7084 15.2174 20.8367 13.7271 19.418L13.6184 19.3139C13.3605 19.0644 13.2519 18.6452 13.5213 18.2969Z" fill="#9CD97D"/>
<path id="Vector_5" fill-rule="evenodd" clip-rule="evenodd" d="M10.6783 14.6331C8.80557 14.4942 7.55696 12.8004 7.98268 11.0488L8.01422 10.9208C8.09133 10.616 8.37383 10.3386 8.77909 10.3689C10.6518 10.5078 11.9001 12.2013 11.4747 13.9531L11.4431 14.0812C11.3663 14.3862 11.0835 14.6634 10.6783 14.6331Z" fill="#9CD97D"/>
<path id="Vector_6" fill-rule="evenodd" clip-rule="evenodd" d="M10.326 17.7709C8.54606 18.3429 6.70104 17.2512 6.37265 15.4808L6.34903 15.3512C6.29468 15.042 6.44053 14.6812 6.82583 14.5576C8.60579 13.9856 10.4504 15.0772 10.7792 16.8478L10.8028 16.9774C10.8576 17.2868 10.7113 17.6474 10.326 17.7709Z" fill="#9CD97D"/>
</g>
</svg>
