<svg preserveAspectRatio="none" overflow="visible" style="display: block;" width="180" height="180" viewBox="0 0 180 180" fill="none" xmlns="http://www.w3.org/2000/svg">
<g id="Mascot">
<path id="Vector" fill-rule="evenodd" clip-rule="evenodd" d="M104.589 24.4797C77.5045 14.6371 56.3775 31.3201 45.4071 54.8815C31.7958 83.9304 29.8535 128.879 60.7457 148.466C69.9249 153.949 80.2568 157.265 90.9397 158.156C101.623 159.047 112.369 157.489 122.346 153.604C128.346 151.519 133.765 148.061 138.16 143.51C148.524 132.391 143.173 118.999 136.863 107.667L134.145 103.045C129.954 95.9923 125.631 88.8022 125.762 80.2441C125.762 77.2116 126.583 73.837 127.405 70.4548C127.965 68.1442 128.526 65.7501 128.833 63.5232C131.42 44.2332 121.923 30.7652 104.589 24.4797ZM73.1517 68.8283C77.1283 68.8283 80.368 65.6209 80.368 61.6458C80.371 60.7046 80.1868 59.772 79.8258 58.9013C79.4648 58.0306 78.934 57.2388 78.2639 56.5712C77.5938 55.9035 76.7975 55.3731 75.9203 55.0101C75.0431 54.6472 74.1024 54.4588 73.1517 54.4558C72.204 54.4618 71.2668 54.6525 70.3936 55.0171C69.5203 55.3816 68.7282 55.9129 68.0624 56.5806C67.3965 57.2482 66.8701 58.0392 66.513 58.9083C66.1559 59.7774 65.9753 60.7076 65.9814 61.6458C65.9814 65.6209 69.221 68.8283 73.1517 68.8283ZM102.094 79.3473C106.117 79.3473 109.31 76.1019 109.31 72.1649C109.32 70.2713 108.571 68.4513 107.226 67.1045C105.882 65.7578 104.052 64.9945 102.14 64.9824C100.274 65.0675 98.5121 65.8613 97.2217 67.199C95.9314 68.5366 95.2113 70.3152 95.2113 72.1649C95.2113 74.0146 95.9314 75.7931 97.2217 77.1307C98.5121 78.4684 100.274 79.2623 102.14 79.3473H102.094Z" fill="#FFA2A2"/>
<circle id="Ellipse 91" cx="72.5765" cy="58.415" r="3.92807" fill="black"/>
<circle id="Ellipse 92" cx="101.559" cy="69.0011" r="3.92807" fill="black"/>
<path id="Vector 103" d="M68.7609 90.6409C70.4703 88.5061 72.1032 86.0351 74.6039 86.8668C78.6051 88.1975 75.9003 94.4084 80.5717 95.3044C85.2431 96.2004 87.0209 87.5362 91.1486 88.5061C95.5303 89.5356 93.2334 98.1926 97.7473 99.2393C102.415 100.322 104.782 88.5061 109.621 96.1352" stroke="black" stroke-width="2.4" stroke-linecap="round"/>
</g>
</svg>
